<?xml version="1.0" encoding="UTF-8" standalone="no"?><svg xmlns="http://www.w3.org/2000/svg" xmlns:xlink="http://www.w3.org/1999/xlink" contentStyleType="text/css" height="305px" preserveAspectRatio="none" style="width:1038px;height:305px;background:#FFFFFF;" version="1.1" viewBox="0 0 1038 305" width="1038px" zoomAndPan="magnify"><defs/><g><!--MD5=[abceacb5db3643044e2b9265ecf2e8f4]
cluster Alert Service--><g id="cluster_Alert Service"><path d="M235,6 L338,6 A3.75,3.75 0 0 1 340.5,8.5 L347.5,28.2969 L621,28.2969 A2.5,2.5 0 0 1 623.5,30.7969 L623.5,100.5 A2.5,2.5 0 0 1 621,103 L235,103 A2.5,2.5 0 0 1 232.5,100.5 L232.5,8.5 A2.5,2.5 0 0 1 235,6 " fill="none" style="stroke:#000000;stroke-width:1.5;"/><line style="stroke:#000000;stroke-width:1.5;" x1="232.5" x2="347.5" y1="28.2969" y2="28.2969"/><text fill="#000000" font-family="sans-serif" font-size="14" font-weight="bold" lengthAdjust="spacing" textLength="102" x="236.5" y="20.9951">Alert Service</text></g><!--MD5=[1fdbcc9a7d0a024f0d39718328280490]
cluster Dashboard UI--><g id="cluster_Dashboard UI"><path d="M650,6 L756,6 A3.75,3.75 0 0 1 758.5,8.5 L765.5,28.2969 L1029,28.2969 A2.5,2.5 0 0 1 1031.5,30.7969 L1031.5,100.5 A2.5,2.5 0 0 1 1029,103 L650,103 A2.5,2.5 0 0 1 647.5,100.5 L647.5,8.5 A2.5,2.5 0 0 1 650,6 " fill="none" style="stroke:#000000;stroke-width:1.5;"/><line style="stroke:#000000;stroke-width:1.5;" x1="647.5" x2="765.5" y1="28.2969" y2="28.2969"/><text fill="#000000" font-family="sans-serif" font-size="14" font-weight="bold" lengthAdjust="spacing" textLength="105" x="651.5" y="20.9951">Dashboard UI</text></g><!--MD5=[f15f104f3d545e8293fedd09e7703aeb]
entity Threshold Manager--><g id="elem_Threshold Manager"><rect fill="#F1F1F1" height="46.2969" rx="2.5" ry="2.5" style="stroke:#181818;stroke-width:0.5;" width="174" x="433.5" y="41"/><rect fill="#F1F1F1" height="10" style="stroke:#181818;stroke-width:0.5;" width="15" x="587.5" y="46"/><rect fill="#F1F1F1" height="2" style="stroke:#181818;stroke-width:0.5;" width="4" x="585.5" y="48"/><rect fill="#F1F1F1" height="2" style="stroke:#181818;stroke-width:0.5;" width="4" x="585.5" y="52"/><text fill="#000000" font-family="sans-serif" font-size="14" lengthAdjust="spacing" textLength="134" x="448.5" y="73.9951">Threshold Manager</text></g><!--MD5=[c7a4c44742849fa6917e7e2ee9254821]
entity Alert Dispatcher--><g id="elem_Alert Dispatcher"><rect fill="#F1F1F1" height="46.2969" rx="2.5" ry="2.5" style="stroke:#181818;stroke-width:0.5;" width="150" x="248.5" y="41"/><rect fill="#F1F1F1" height="10" style="stroke:#181818;stroke-width:0.5;" width="15" x="378.5" y="46"/><rect fill="#F1F1F1" height="2" style="stroke:#181818;stroke-width:0.5;" width="4" x="376.5" y="48"/><rect fill="#F1F1F1" height="2" style="stroke:#181818;stroke-width:0.5;" width="4" x="376.5" y="52"/><text fill="#000000" font-family="sans-serif" font-size="14" lengthAdjust="spacing" textLength="110" x="263.5" y="73.9951">Alert Dispatcher</text></g><!--MD5=[371ea45b4a51a030f81dff8eb4ebff4a]
entity Dashboard Page--><g id="elem_Dashboard Page"><rect fill="#F1F1F1" height="46.2969" rx="2.5" ry="2.5" style="stroke:#181818;stroke-width:0.5;" width="155" x="860" y="41"/><rect fill="#F1F1F1" height="10" style="stroke:#181818;stroke-width:0.5;" width="15" x="995" y="46"/><rect fill="#F1F1F1" height="2" style="stroke:#181818;stroke-width:0.5;" width="4" x="993" y="48"/><rect fill="#F1F1F1" height="2" style="stroke:#181818;stroke-width:0.5;" width="4" x="993" y="52"/><text fill="#000000" font-family="sans-serif" font-size="14" lengthAdjust="spacing" textLength="115" x="875" y="73.9951">Dashboard Page</text></g><!--MD5=[1d4be1ac65b33642d0b2e91a6263e180]
entity Alert History Page--><g id="elem_Alert History Page"><rect fill="#F1F1F1" height="46.2969" rx="2.5" ry="2.5" style="stroke:#181818;stroke-width:0.5;" width="161" x="664" y="41"/><rect fill="#F1F1F1" height="10" style="stroke:#181818;stroke-width:0.5;" width="15" x="805" y="46"/><rect fill="#F1F1F1" height="2" style="stroke:#181818;stroke-width:0.5;" width="4" x="803" y="48"/><rect fill="#F1F1F1" height="2" style="stroke:#181818;stroke-width:0.5;" width="4" x="803" y="52"/><text fill="#000000" font-family="sans-serif" font-size="14" lengthAdjust="spacing" textLength="121" x="679" y="73.9951">Alert History Page</text></g><!--MD5=[cbb8739ea188949496da5cf57df98c74]
entity API Gateway--><g id="elem_API Gateway"><rect fill="#F1F1F1" height="46.2969" rx="2.5" ry="2.5" style="stroke:#181818;stroke-width:0.5;" width="124" x="84.5" y="147"/><rect fill="#F1F1F1" height="10" style="stroke:#181818;stroke-width:0.5;" width="15" x="188.5" y="152"/><rect fill="#F1F1F1" height="2" style="stroke:#181818;stroke-width:0.5;" width="4" x="186.5" y="154"/><rect fill="#F1F1F1" height="2" style="stroke:#181818;stroke-width:0.5;" width="4" x="186.5" y="158"/><text fill="#000000" font-family="sans-serif" font-size="14" lengthAdjust="spacing" textLength="84" x="99.5" y="179.9951">API Gateway</text></g><!--MD5=[a3d81bc03f40465f4e98c44b00c76242]
entity Alert Service--><g id="elem_Alert Service"><rect fill="#F1F1F1" height="46.2969" rx="2.5" ry="2.5" style="stroke:#181818;stroke-width:0.5;" width="125" x="7" y="253"/><rect fill="#F1F1F1" height="10" style="stroke:#181818;stroke-width:0.5;" width="15" x="112" y="258"/><rect fill="#F1F1F1" height="2" style="stroke:#181818;stroke-width:0.5;" width="4" x="110" y="260"/><rect fill="#F1F1F1" height="2" style="stroke:#181818;stroke-width:0.5;" width="4" x="110" y="264"/><text fill="#000000" font-family="sans-serif" font-size="14" lengthAdjust="spacing" textLength="85" x="22" y="285.9951">Alert Service</text></g><!--MD5=[f4afbf3e1e9cb6a28462572dcf72ea90]
entity Data Store--><g id="elem_Data Store"><rect fill="#F1F1F1" height="46.2969" rx="2.5" ry="2.5" style="stroke:#181818;stroke-width:0.5;" width="113" x="167" y="253"/><rect fill="#F1F1F1" height="10" style="stroke:#181818;stroke-width:0.5;" width="15" x="260" y="258"/><rect fill="#F1F1F1" height="2" style="stroke:#181818;stroke-width:0.5;" width="4" x="258" y="260"/><rect fill="#F1F1F1" height="2" style="stroke:#181818;stroke-width:0.5;" width="4" x="258" y="264"/><text fill="#000000" font-family="sans-serif" font-size="14" lengthAdjust="spacing" textLength="73" x="182" y="285.9951">Data Store</text></g><!--MD5=[204aaf418d4f32488be5b88b099342eb]
entity Dashboard UI--><g id="elem_Dashboard UI"><rect fill="#F1F1F1" height="46.2969" rx="2.5" ry="2.5" style="stroke:#181818;stroke-width:0.5;" width="133" x="80" y="41"/><rect fill="#F1F1F1" height="10" style="stroke:#181818;stroke-width:0.5;" width="15" x="193" y="46"/><rect fill="#F1F1F1" height="2" style="stroke:#181818;stroke-width:0.5;" width="4" x="191" y="48"/><rect fill="#F1F1F1" height="2" style="stroke:#181818;stroke-width:0.5;" width="4" x="191" y="52"/><text fill="#000000" font-family="sans-serif" font-size="14" lengthAdjust="spacing" textLength="93" x="95" y="73.9951">Dashboard UI</text></g><!--MD5=[92c0ca1c592eb9af4b3bb2a2191fa04e]
link API Gateway to Alert Service--><g id="link_API Gateway_Alert Service"><path d="M130.17,193.06 C118.12,209.33 101.68,231.53 88.96,248.72 " fill="none" id="API Gateway-to-Alert Service" style="stroke:#181818;stroke-width:1.0;"/><polygon fill="#181818" points="85.81,252.98,94.3714,248.1114,88.7779,248.9562,87.9332,243.3627,85.81,252.98" style="stroke:#181818;stroke-width:1.0;"/></g><!--MD5=[abe2965d34f07b15c839c0b5c1247d16]
link API Gateway to Data Store--><g id="link_API Gateway_Data Store"><path d="M162.83,193.06 C174.88,209.33 191.32,231.53 204.04,248.72 " fill="none" id="API Gateway-to-Data Store" style="stroke:#181818;stroke-width:1.0;"/><polygon fill="#181818" points="207.19,252.98,205.0668,243.3627,204.2221,248.9562,198.6286,248.1114,207.19,252.98" style="stroke:#181818;stroke-width:1.0;"/></g><!--MD5=[cf2e6825f8f30c037a89b24af4294dc0]
link Dashboard UI to API Gateway--><g id="link_Dashboard UI_API Gateway"><path d="M146.5,87.06 C146.5,103.05 146.5,124.78 146.5,141.84 " fill="none" id="Dashboard UI-to-API Gateway" style="stroke:#181818;stroke-width:1.0;"/><polygon fill="#181818" points="146.5,146.98,150.5,137.98,146.5,141.98,142.5,137.98,146.5,146.98" style="stroke:#181818;stroke-width:1.0;"/></g><!--MD5=[0d0422d599615dc89966a3225a21b706]
@startuml
package "Alert Service" {
  [Threshold Manager]
  [Alert Dispatcher]
}

package "Dashboard UI" {
  [Dashboard Page]
  [Alert History Page]
}

[API Gateway] - -> [Alert Service]
[API Gateway] - -> [Data Store]
[Dashboard UI] - -> [API Gateway]
@enduml

PlantUML version 1.2022.7(Mon Aug 22 17:01:30 UTC 2022)
(GPL source distribution)
Java Runtime: OpenJDK Runtime Environment
JVM: OpenJDK 64-Bit Server VM
Default Encoding: UTF-8
Language: en
Country: null
--></g></svg>