<svg xmlns="http://www.w3.org/2000/svg" xmlns:xlink="http://www.w3.org/1999/xlink" contentStyleType="text/css" data-diagram-type="SEQUENCE" height="510px" preserveAspectRatio="none" style="width:813px;height:510px;background:#FFFFFF;" version="1.1" viewBox="0 0 813 510" width="813px" zoomAndPan="magnify"><title>Alerts GET (Cursor Pagination)</title><defs/><g><text fill="#000000" font-family="sans-serif" font-size="14" font-weight="bold" lengthAdjust="spacing" textLength="242.1016" x="284.9314" y="27.9951">Alerts GET (Cursor Pagination)</text><g><title>Client</title><rect fill="#000000" fill-opacity="0.00000" height="311.3281" width="8" x="24.2651" y="118.5938"/><line style="stroke:#181818;stroke-width:0.5;stroke-dasharray:5,5;" x1="28" x2="28" y1="118.5938" y2="429.9219"/></g><g><title>API Gateway</title><rect fill="#000000" fill-opacity="0.00000" height="311.3281" width="8" x="288.27" y="118.5938"/><line style="stroke:#181818;stroke-width:0.5;stroke-dasharray:5,5;" x1="292.0483" x2="292.0483" y1="118.5938" y2="429.9219"/></g><g><title>Alerts Service</title><rect fill="#000000" fill-opacity="0.00000" height="311.3281" width="8" x="480.5527" y="118.5938"/><line style="stroke:#181818;stroke-width:0.5;stroke-dasharray:5,5;" x1="484.1475" x2="484.1475" y1="118.5938" y2="429.9219"/></g><g><title>Cache</title><rect fill="#000000" fill-opacity="0.00000" height="311.3281" width="8" x="684.3945" y="118.5938"/><line style="stroke:#181818;stroke-width:0.5;stroke-dasharray:5,5;" x1="687.6255" x2="687.6255" y1="118.5938" y2="429.9219"/></g><g><title>Database</title><rect fill="#000000" fill-opacity="0.00000" height="311.3281" width="8" x="763.564" y="118.5938"/><line style="stroke:#181818;stroke-width:0.5;stroke-dasharray:5,5;" x1="767.1636" x2="767.1636" y1="118.5938" y2="429.9219"/></g><g class="participant participant-head" data-participant="Client"><text fill="#000000" font-family="sans-serif" font-size="14" lengthAdjust="spacing" textLength="40.5303" x="5" y="115.292">Client</text><ellipse cx="28.2651" cy="50.7969" fill="#E2E2F0" rx="8" ry="8" style="stroke:#181818;stroke-width:0.5;"/><path d="M28.2651,58.7969 L28.2651,85.7969 M15.2651,66.7969 L41.2651,66.7969 M28.2651,85.7969 L15.2651,100.7969 M28.2651,85.7969 L41.2651,100.7969" fill="none" style="stroke:#181818;stroke-width:0.5;"/></g><g class="participant participant-tail" data-participant="Client"><text fill="#000000" font-family="sans-serif" font-size="14" lengthAdjust="spacing" textLength="40.5303" x="5" y="441.917">Client</text><ellipse cx="28.2651" cy="453.7188" fill="#E2E2F0" rx="8" ry="8" style="stroke:#181818;stroke-width:0.5;"/><path d="M28.2651,461.7188 L28.2651,488.7188 M15.2651,469.7188 L41.2651,469.7188 M28.2651,488.7188 L15.2651,503.7188 M28.2651,488.7188 L41.2651,503.7188" fill="none" style="stroke:#181818;stroke-width:0.5;"/></g><g class="participant participant-head" data-participant="API"><rect fill="#E2E2F0" height="30.2969" rx="2.5" ry="2.5" style="stroke:#181818;stroke-width:0.5;" width="102.4434" x="241.0483" y="87.2969"/><text fill="#000000" font-family="sans-serif" font-size="14" lengthAdjust="spacing" textLength="88.4434" x="248.0483" y="107.292">API Gateway</text></g><g class="participant participant-tail" data-participant="API"><rect fill="#E2E2F0" height="30.2969" rx="2.5" ry="2.5" style="stroke:#181818;stroke-width:0.5;" width="102.4434" x="241.0483" y="428.9219"/><text fill="#000000" font-family="sans-serif" font-size="14" lengthAdjust="spacing" textLength="88.4434" x="248.0483" y="448.917">API Gateway</text></g><g class="participant participant-head" data-participant="Service"><rect fill="#E2E2F0" height="30.2969" rx="2.5" ry="2.5" style="stroke:#181818;stroke-width:0.5;" width="110.8105" x="429.1475" y="87.2969"/><text fill="#000000" font-family="sans-serif" font-size="14" lengthAdjust="spacing" textLength="96.8105" x="436.1475" y="107.292">Alerts Service</text></g><g class="participant participant-tail" data-participant="Service"><rect fill="#E2E2F0" height="30.2969" rx="2.5" ry="2.5" style="stroke:#181818;stroke-width:0.5;" width="110.8105" x="429.1475" y="428.9219"/><text fill="#000000" font-family="sans-serif" font-size="14" lengthAdjust="spacing" textLength="96.8105" x="436.1475" y="448.917">Alerts Service</text></g><g class="participant participant-head" data-participant="Cache"><rect fill="#E2E2F0" height="30.2969" rx="2.5" ry="2.5" style="stroke:#181818;stroke-width:0.5;" width="57.5381" x="659.6255" y="87.2969"/><text fill="#000000" font-family="sans-serif" font-size="14" lengthAdjust="spacing" textLength="43.5381" x="666.6255" y="107.292">Cache</text></g><g class="participant participant-tail" data-participant="Cache"><rect fill="#E2E2F0" height="30.2969" rx="2.5" ry="2.5" style="stroke:#181818;stroke-width:0.5;" width="57.5381" x="659.6255" y="428.9219"/><text fill="#000000" font-family="sans-serif" font-size="14" lengthAdjust="spacing" textLength="43.5381" x="666.6255" y="448.917">Cache</text></g><g class="participant participant-head" data-participant="DB"><rect fill="#E2E2F0" height="30.2969" rx="2.5" ry="2.5" style="stroke:#181818;stroke-width:0.5;" width="80.8008" x="727.1636" y="87.2969"/><text fill="#000000" font-family="sans-serif" font-size="14" lengthAdjust="spacing" textLength="66.8008" x="734.1636" y="107.292">Database</text></g><g class="participant participant-tail" data-participant="DB"><rect fill="#E2E2F0" height="30.2969" rx="2.5" ry="2.5" style="stroke:#181818;stroke-width:0.5;" width="80.8008" x="727.1636" y="428.9219"/><text fill="#000000" font-family="sans-serif" font-size="14" lengthAdjust="spacing" textLength="66.8008" x="734.1636" y="448.917">Database</text></g><g class="message" data-participant-1="Client" data-participant-2="API"><polygon fill="#181818" points="280.27,145.7266,290.27,149.7266,280.27,153.7266,284.27,149.7266" style="stroke:#181818;stroke-width:1;"/><line style="stroke:#181818;stroke-width:1;" x1="28.2651" x2="286.27" y1="149.7266" y2="149.7266"/><text fill="#000000" font-family="sans-serif" font-size="13" lengthAdjust="spacing" textLength="240.0049" x="35.2651" y="144.6606">GET /v1/alerts?limit=25&amp;cursor=abc</text></g><g class="message" data-participant-1="API" data-participant-2="Cache"><polygon fill="#181818" points="676.3945,174.8594,686.3945,178.8594,676.3945,182.8594,680.3945,178.8594" style="stroke:#181818;stroke-width:1;"/><line style="stroke:#181818;stroke-width:1;" x1="292.27" x2="682.3945" y1="178.8594" y2="178.8594"/><text fill="#000000" font-family="sans-serif" font-size="13" lengthAdjust="spacing" textLength="124.3823" x="299.27" y="173.7935">Check cursor "abc"</text></g><g class="message" data-participant-1="Cache" data-participant-2="API"><polygon fill="#181818" points="303.27,203.9922,293.27,207.9922,303.27,211.9922,299.27,207.9922" style="stroke:#181818;stroke-width:1;"/><line style="stroke:#181818;stroke-width:1;stroke-dasharray:2,2;" x1="297.27" x2="687.3945" y1="207.9922" y2="207.9922"/><text fill="#000000" font-family="sans-serif" font-size="13" lengthAdjust="spacing" textLength="227.2144" x="309.27" y="202.9263">Cached data? Yes -&gt; return subset</text></g><g class="message" data-participant-1="Cache" data-participant-2="API"><polygon fill="#181818" points="303.27,233.125,293.27,237.125,303.27,241.125,299.27,237.125" style="stroke:#181818;stroke-width:1;"/><line style="stroke:#181818;stroke-width:1;stroke-dasharray:2,2;" x1="297.27" x2="687.3945" y1="237.125" y2="237.125"/><text fill="#000000" font-family="sans-serif" font-size="13" lengthAdjust="spacing" textLength="145.4312" x="309.27" y="232.0591">No -&gt; forward request</text></g><g class="message" data-participant-1="API" data-participant-2="Service"><polygon fill="#181818" points="472.5527,262.2578,482.5527,266.2578,472.5527,270.2578,476.5527,266.2578" style="stroke:#181818;stroke-width:1;"/><line style="stroke:#181818;stroke-width:1;" x1="292.27" x2="478.5527" y1="266.2578" y2="266.2578"/><text fill="#000000" font-family="sans-serif" font-size="13" lengthAdjust="spacing" textLength="134.6147" x="299.27" y="261.1919">Fetch alerts from DB</text></g><g class="message" data-participant-1="Service" data-participant-2="DB"><polygon fill="#181818" points="755.564,291.3906,765.564,295.3906,755.564,299.3906,759.564,295.3906" style="stroke:#181818;stroke-width:1;"/><line style="stroke:#181818;stroke-width:1;" x1="484.5527" x2="761.564" y1="295.3906" y2="295.3906"/><text fill="#000000" font-family="sans-serif" font-size="13" lengthAdjust="spacing" textLength="199.9385" x="491.5527" y="290.3247">Query alerts after cursor "abc"</text></g><g class="message" data-participant-1="DB" data-participant-2="Service"><polygon fill="#181818" points="495.5527,320.5234,485.5527,324.5234,495.5527,328.5234,491.5527,324.5234" style="stroke:#181818;stroke-width:1;"/><line style="stroke:#181818;stroke-width:1;stroke-dasharray:2,2;" x1="489.5527" x2="766.564" y1="324.5234" y2="324.5234"/><text fill="#000000" font-family="sans-serif" font-size="13" lengthAdjust="spacing" textLength="64.7524" x="501.5527" y="319.4575">Result set</text></g><g class="message" data-participant-1="Service" data-participant-2="Cache"><polygon fill="#181818" points="676.3945,349.6563,686.3945,353.6563,676.3945,357.6563,680.3945,353.6563" style="stroke:#181818;stroke-width:1;"/><line style="stroke:#181818;stroke-width:1;stroke-dasharray:2,2;" x1="484.5527" x2="682.3945" y1="353.6563" y2="353.6563"/><text fill="#000000" font-family="sans-serif" font-size="13" lengthAdjust="spacing" textLength="179.8418" x="491.5527" y="348.5903">Store result with cursor key</text></g><g class="message" data-participant-1="Service" data-participant-2="API"><polygon fill="#181818" points="303.27,378.7891,293.27,382.7891,303.27,386.7891,299.27,382.7891" style="stroke:#181818;stroke-width:1;"/><line style="stroke:#181818;stroke-width:1;stroke-dasharray:2,2;" x1="297.27" x2="483.5527" y1="382.7891" y2="382.7891"/><text fill="#000000" font-family="sans-serif" font-size="13" lengthAdjust="spacing" textLength="168.2827" x="309.27" y="377.7231">Return data + nextCursor</text></g><g class="message" data-participant-1="API" data-participant-2="Client"><polygon fill="#181818" points="39.2651,407.9219,29.2651,411.9219,39.2651,415.9219,35.2651,411.9219" style="stroke:#181818;stroke-width:1;"/><line style="stroke:#181818;stroke-width:1;stroke-dasharray:2,2;" x1="33.2651" x2="291.27" y1="411.9219" y2="411.9219"/><text fill="#000000" font-family="sans-serif" font-size="13" lengthAdjust="spacing" textLength="212.9131" x="45.2651" y="406.856">200 OK (alerts list + nextCursor)</text></g><!--SRC=[PP91Jm8n48Nl_HMJFHY88I295n8ai2Wn9eh0nUDG1hTXsSLs5kJVEsrPukgjtVVDc_VIPSCvmJWdomvcZojefPLrfOKvVfe2sPH5ModKB9_It531we2MZJO7B1YIyVmPPiXqmdC2w43kVu1elIHxD9e2SpatkHHr5kLmQefJP5oZY_fqebIC0fq7ln068NdtUDV5i6sKcxtXOV_-HeSoGrnhvK7XWxjCf1df7KGT4W4I5QNErJJSDx2HvIFu8EV7BN5b2t3LsX7_ctWjFRCjxGdjHjYlYXpNco-r1NiYrXd4hB2rvTvtgcKXfnE1tYkovnh2BPDjfXMeqt1TaAjo1f_hwlMhy5AUa2HJW4w6izfkH-V6GAooY4LzURY5Whuv_XYnZVUDJp20Vgy7Ro_GkaJDZUF6HFi7]--></g></svg>